<svg width="500" height="144" viewBox="0 0 500 144" fill="none" xmlns="http://www.w3.org/2000/svg">
<g clip-path="url(#clip0_68_2)">
<path d="M71.7 25.6C64.3 21.8 55.7 19.5 46.8 19.5C28.2 19.5 15.3 30.4 15.3 46C15.3 61.8 28.8 75.9 49.5 75.9C59.6 75.9 69.7 73 78.2 69.1H78.6L71.7 81.6C65.4 84 58.4 84.8 51.4 84.8C19.6 84.8 0 70.6 0 47.6C0 25.3 19.6 10.6 47.2 10.6C55.4 10.6 63.7 11.8 71.7 13.3V25.6Z" fill="black"/>
<path d="M117.2 84.5C136.2 84.5 152.3 73.3 152.3 57.8C152.3 50.5 148.1 43.4 141.3 38.5C134.8 34 127.4 32.1 118.8 32.1C99.4 32.1 83.2 42.5 83.2 58.7C83.1 74 98.7 84.5 117.2 84.5ZM117.8 77.4C104.1 77.4 96.7 66.7 96.7 56.8C96.7 47.1 104.8 39.3 117.3 39.3C131.7 39.3 138.7 49.6 138.7 60.1C138.7 69.7 130.2 77.4 117.8 77.4Z" fill="black"/>
<path d="M167.2 33.6C170.2 33.6 173.4 33.5 175.5 32.2H175.9V40.7C180.6 34.9 185.9 32.2 194.9 32.2C204.4 32.2 210.9 35.2 215.9 41.6C221.2 35.8 227.5 32.2 237.4 32.2C256.5 32.2 261.5 40.9 261.5 54.6V71.2C261.5 75.8 260.7 81.1 267.4 82.8V83.1H244.1V82.8C250 80.1 249.2 76.1 249.2 71.2V57.3C249.2 46.3 244.9 39.3 234.1 39.3C222 39.3 218.6 45.4 218.6 55.6V71.2C218.6 76.2 217.8 80.1 223.7 82.8V83.1H201.2V82.8C207.1 80.1 206.3 76.1 206.3 71.2V56.3C206.3 45 199.3 39.3 191 39.3C180.8 39.3 175.8 44.4 175.8 54.7V71.2C175.8 76.2 175 80 180.8 82.8V83.1H158.5V82.8C164.4 80.1 163.6 76.1 163.6 71.2V45.4C163.6 40.4 164.4 36.6 158.5 33.9V33.6H167.2Z" fill="black"/>
<path d="M270.9 33.6C275.2 33.6 280 34.1 283.3 32.2H283.7C283.8 33.8 284.5 36 285.4 37.8L301.1 70.5L313.3 45.2C315.2 41.3 318.6 36.2 312.1 33.9V33.6H329.7V35.2C329.7 36.3 331 39 331.6 40.1L345.5 70.4L358 45.1C359.7 41.4 363.4 36.5 356.1 33.8V33.5H374.1L347.5 85C338.4 81.1 337.3 79.3 333.9 72.2L322.3 47.5L303.9 85C294.3 81 293 79.7 289.4 72.2L274.6 42C272.7 38.4 271.6 36.1 267.5 33.9V33.6H270.9Z" fill="black"/>
<path d="M441.2 56.6C441.7 42.7 429.2 32.2 410.9 32.2C390.9 32.2 377.3 43.1 377.3 58C377.3 73 393 84.5 415.9 84.5C422.2 84.5 428.7 83.7 434.5 81.8L441.2 71.7H440.8C434.6 75.6 426.8 77.4 418.7 77.4C403.5 77.4 392.1 69.8 391.8 56.6H441.2ZM392.4 50.4C394 43.6 400.7 39.3 409.8 39.3C419.5 39.3 425.7 42.9 427.2 50.4H392.4Z" fill="black"/>
<path d="M456.4 1.7C459.5 1.7 463 1.8 465 -0.300003H465.4V69.4C465.4 75.1 464.5 79.7 470.4 82.8V83.2H448.2V82.8C454 79.7 453.2 75.1 453.2 69.4V15.4C453.2 9.7 454 5.1 448.2 2V1.7H456.4Z" fill="black"/>
<path d="M486 1.7C489.1 1.7 492.6 1.8 494.6 -0.300003H495V69.4C495 75.1 494.1 79.7 500 82.8V83.2H477.8V82.8C483.6 79.7 482.8 75.1 482.8 69.4V15.4C482.8 9.7 483.6 5.1 477.8 2V1.7H486Z" fill="black"/>
<path d="M148.4 113.1H155.1V124.4H168V113.1H174.7V143.3H168V130.2H155.1V143.3H148.4V113.1Z" fill="black"/>
<path d="M187.7 128.2C187.7 125.8 188.1 123.6 188.9 121.6C189.7 119.6 190.8 118 192.3 116.6C193.8 115.2 195.5 114.2 197.5 113.4C199.5 112.7 201.7 112.3 204 112.3C206.4 112.3 208.5 112.7 210.5 113.4C212.5 114.1 214.2 115.2 215.7 116.6C217.2 118 218.3 119.7 219.1 121.6C219.9 123.6 220.3 125.8 220.3 128.2C220.3 130.6 219.9 132.8 219.1 134.8C218.3 136.8 217.2 138.4 215.7 139.8C214.2 141.2 212.5 142.2 210.5 143C208.5 143.7 206.3 144.1 204 144.1C201.6 144.1 199.5 143.7 197.5 143C195.5 142.3 193.8 141.2 192.3 139.8C190.8 138.4 189.7 136.7 188.9 134.8C188.1 132.9 187.7 130.7 187.7 128.2ZM194.7 128.2C194.7 129.6 194.9 130.9 195.4 132.1C195.8 133.3 196.5 134.3 197.3 135.2C198.1 136.1 199.1 136.7 200.3 137.2C201.5 137.7 202.7 137.9 204.2 137.9C205.6 137.9 206.9 137.7 208.1 137.2C209.3 136.7 210.2 136 211.1 135.2C211.9 134.3 212.6 133.3 213 132.1C213.4 130.9 213.7 129.6 213.7 128.2C213.7 126.8 213.5 125.5 213 124.3C212.6 123.1 211.9 122.1 211.1 121.2C210.3 120.3 209.3 119.7 208.1 119.2C206.9 118.7 205.7 118.5 204.2 118.5C202.8 118.5 201.5 118.7 200.3 119.2C199.1 119.7 198.2 120.4 197.3 121.2C196.5 122.1 195.8 123.1 195.4 124.3C194.9 125.5 194.7 126.8 194.7 128.2Z" fill="black"/>
<path d="M239.3 119H230.7V113.1H254.6V119H246V143.3H239.3V119Z" fill="black"/>
<path d="M266.8 113.1H287.3V119.3H273.4V124.9H286.5V131.1H273.4V137.3H288.1V143.5H266.8V113.1Z" fill="black"/>
<path d="M302.2 113.1H308.9V137.2H321.2V143.4H302.2V113.1Z" fill="black"/>
<path d="M348.4 120.5C347.9 119.8 347.1 119.3 346.2 119C345.3 118.7 344.4 118.5 343.6 118.5C343.1 118.5 342.6 118.6 342.1 118.7C341.6 118.8 341.1 119 340.6 119.2C340.1 119.4 339.8 119.8 339.5 120.2C339.2 120.6 339.1 121.1 339.1 121.7C339.1 122.6 339.4 123.3 340.1 123.8C340.8 124.3 341.6 124.7 342.7 125C343.7 125.3 344.9 125.7 346.1 126C347.3 126.3 348.4 126.8 349.5 127.5C350.5 128.1 351.4 129 352.1 130C352.8 131.1 353.1 132.5 353.1 134.2C353.1 135.9 352.8 137.3 352.2 138.6C351.6 139.9 350.7 140.9 349.7 141.7C348.6 142.5 347.4 143.1 346 143.5C344.6 143.9 343.1 144.1 341.5 144.1C339.5 144.1 337.7 143.8 336 143.2C334.3 142.6 332.8 141.6 331.3 140.3L336 135.1C336.7 136 337.5 136.7 338.6 137.2C339.6 137.7 340.7 137.9 341.8 137.9C342.3 137.9 342.9 137.8 343.4 137.7C344 137.6 344.5 137.4 344.9 137.1C345.3 136.8 345.7 136.5 346 136.1C346.3 135.7 346.4 135.2 346.4 134.7C346.4 133.8 346.1 133.1 345.4 132.5C344.7 132 343.8 131.5 342.8 131.2C341.7 130.8 340.6 130.5 339.4 130.1C338.2 129.7 337 129.2 336 128.6C334.9 128 334.1 127.1 333.4 126.1C332.7 125.1 332.4 123.7 332.4 122C332.4 120.4 332.7 119 333.4 117.7C334 116.5 334.9 115.5 336 114.6C337.1 113.8 338.3 113.2 339.7 112.7C341.1 112.3 342.5 112.1 344 112.1C345.7 112.1 347.4 112.3 349 112.8C350.6 113.3 352 114.1 353.3 115.2L348.4 120.5Z" fill="black"/>
</g>
<defs>
<clipPath id="clip0_68_2">
<rect width="500" height="144" fill="black"/>
</clipPath>
</defs>
</svg>
